<svg width="24" height="27" viewBox="0 0 24 27" fill="none" xmlns="http://www.w3.org/2000/svg">
<path d="M5.5 23.625C5.5 24.2217 5.71071 24.794 6.08579 25.216C6.46086 25.6379 6.96957 25.875 7.5 25.875C8.03043 25.875 8.53914 25.6379 8.91421 25.216C9.28929 24.794 9.5 24.2217 9.5 23.625M12.5 23.625C12.5 24.2217 12.7107 24.794 13.0858 25.216C13.4609 25.6379 13.9696 25.875 14.5 25.875C15.0304 25.875 15.5391 25.6379 15.9142 25.216C16.2893 24.794 16.5 24.2217 16.5 23.625M7 8.4375H22.5V8.71875L22.261 9.03712C19.8317 12.2828 18.4997 16.3895 18.5 20.6325V20.8125H5.5V18.6975C5.5 16.3575 5.434 14.0197 5.114 11.709C4.56 7.7085 3.337 1.6875 1 1.6875" stroke="#AAAAAA"/>
</svg>
