<svg width="31" height="28" viewBox="0 0 31 28" fill="none" xmlns="http://www.w3.org/2000/svg">
<g clip-path="url(#clip0_34_1015)">
<path d="M30.9892 13.7509C30.9892 14.7196 30.1819 15.4785 29.267 15.4785H27.5448L27.5825 24.1003C27.5825 24.2457 27.5717 24.391 27.5556 24.5363V25.4028C27.5556 26.5922 26.5922 27.5556 25.4028 27.5556H24.5417C24.4825 27.5556 24.4233 27.5556 24.3641 27.5502C24.2887 27.5556 24.2134 27.5556 24.138 27.5556H21.0972C19.9078 27.5556 18.9444 26.5922 18.9444 25.4028V20.6667C18.9444 19.7141 18.1748 18.9444 17.2222 18.9444H13.7778C12.8252 18.9444 12.0556 19.7141 12.0556 20.6667V25.4028C12.0556 26.5922 11.0922 27.5556 9.90278 27.5556H6.89427C6.81354 27.5556 6.73281 27.5502 6.65208 27.5448C6.5875 27.5502 6.52292 27.5556 6.45833 27.5556H5.59722C4.40781 27.5556 3.44444 26.5922 3.44444 25.4028V19.375C3.44444 19.3266 3.44444 19.2727 3.44983 19.2243V15.4785H1.72222C0.753472 15.4785 0 14.725 0 13.7509C0 13.2665 0.161458 12.8359 0.538194 12.4592L14.3375 0.430556C14.7142 0.0538194 15.1448 0 15.5215 0C15.8983 0 16.3288 0.107639 16.6517 0.376736L30.3972 12.4592C30.8278 12.8359 31.0431 13.2665 30.9892 13.7509Z" fill="url(#paint0_linear_34_1015)"/>
</g>
<defs>
<linearGradient id="paint0_linear_34_1015" x1="0" y1="13.7778" x2="30.3699" y2="13.7778" gradientUnits="userSpaceOnUse">
<stop stop-color="#FD4AE0"/>
<stop offset="0.0347131" stop-color="#FB4AE1"/>
<stop offset="1" stop-color="#B946FF"/>
</linearGradient>
<clipPath id="clip0_34_1015">
<rect width="31" height="27.5556" fill="white"/>
</clipPath>
</defs>
</svg>